<svg xmlns="http://www.w3.org/2000/svg" width="252" height="165" viewBox="0 0 252 165">
  <path id="Union_1" data-name="Union 1" d="M153.364,159.421A70.761,70.761,0,0,1,130.8,144.2q-2.541-2.541-4.8-5.295-2.253,2.752-4.8,5.295A71.042,71.042,0,0,1,5.579,121.637,70.339,70.339,0,0,1,.248,100H0V28H.018Q0,27.5,0,27a27,27,0,0,1,53.931-1.939A70.936,70.936,0,0,1,121.2,43.795q2.541,2.541,4.8,5.295,2.253-2.752,4.8-5.295a71.168,71.168,0,0,1,67.273-18.734A27,27,0,0,1,252,27q0,.5-.018,1H252v72h-.248a71.048,71.048,0,0,1-98.388,59.421ZM143.309,94A37.692,37.692,0,1,0,181,56.309,37.734,37.734,0,0,0,143.309,94Zm-110,0A37.692,37.692,0,1,0,71,56.309,37.734,37.734,0,0,0,33.308,94Z" fill="#f1b9d5"/>
</svg>
