<svg xmlns="http://www.w3.org/2000/svg" width="112.82" height="108.303" viewBox="0 0 112.82 108.303">
  <path id="Union_4" data-name="Union 4" d="M44.01,108.3a2.2,2.2,0,0,1-2.2-2.2V83.4a2.2,2.2,0,0,1,2.2-2.2h66.607a2.2,2.2,0,0,1,2.2,2.2v22.7a2.2,2.2,0,0,1-2.2,2.2Zm2.2-4.406h62.2V85.607h-62.2ZM2.463,108.3a2.2,2.2,0,0,1-2.2-2.2V83.4a2.2,2.2,0,0,1,2.2-2.2H36.329a2.2,2.2,0,0,1,2.2,2.2v22.7a2.2,2.2,0,0,1-2.2,2.2Zm2.2-4.406H34.126V85.607H4.667Zm57.777-6.941a2.2,2.2,0,0,1,0-4.407h37a2.2,2.2,0,0,1,0,4.407Zm-9.911-.647a2.263,2.263,0,0,1-.275-.335,2.188,2.188,0,0,1-.328-.793,2.2,2.2,0,0,1,0-.86,2.22,2.22,0,0,1,.125-.412,2.17,2.17,0,0,1,.2-.381,2.263,2.263,0,0,1,.275-.335,2.093,2.093,0,0,1,.336-.274,2.219,2.219,0,0,1,.379-.2,2.36,2.36,0,0,1,.411-.128,2.162,2.162,0,0,1,1.274.128,2.169,2.169,0,0,1,.381.2,2.16,2.16,0,0,1,.608.608,2.17,2.17,0,0,1,.2.381,2.271,2.271,0,0,1,.126.412,2.116,2.116,0,0,1,0,.86,2.311,2.311,0,0,1-.126.414,2.261,2.261,0,0,1-.2.38,2.127,2.127,0,0,1-.274.335,2.242,2.242,0,0,1-.715.476,2.277,2.277,0,0,1-.412.128,2.211,2.211,0,0,1-1.988-.6ZM76.751,78.074a2.2,2.2,0,0,1-2.2-2.2V32.417a2.2,2.2,0,0,1,2.2-2.2h33.866a2.2,2.2,0,0,1,2.2,2.2V75.871a2.2,2.2,0,0,1-2.2,2.2Zm2.2-4.407h29.459V34.621H78.955ZM2.463,78.074a2.2,2.2,0,0,1-2.2-2.2V32.417a2.2,2.2,0,0,1,2.2-2.2H69.371a2.2,2.2,0,0,1,2.2,2.2V75.871a2.2,2.2,0,0,1-2.2,2.2Zm29.885-4.407H64.105L55.145,61.72H41.309l-1.546,2.061h7.379a2.2,2.2,0,1,1,0,4.407H36.457Zm-24.213,0h18.7l3.016-4.02L20.732,59.082ZM4.667,70.941l14.4-16.67a2.2,2.2,0,0,1,3.335,0L32.562,66.037,46.464,47.5a2.2,2.2,0,0,1,3.525,0l17.178,22.9V34.621H4.667ZM44.614,57.314h7.225L48.227,52.5ZM83.655,69.144a2.179,2.179,0,0,1-.412-.125,2.305,2.305,0,0,1-.381-.2,2.229,2.229,0,0,1-.336-.274,2.262,2.262,0,0,1-.273-.335,2.35,2.35,0,0,1-.2-.382,2.189,2.189,0,0,1,0-1.686,2.305,2.305,0,0,1,.2-.381,2.129,2.129,0,0,1,.608-.608,2.305,2.305,0,0,1,.381-.2,2.25,2.25,0,0,1,.412-.126,2.217,2.217,0,0,1,1.987.6,2.18,2.18,0,0,1,.275.335,2.31,2.31,0,0,1,.2.381,2.247,2.247,0,0,1,.125.412,2.213,2.213,0,0,1,0,.861,2.247,2.247,0,0,1-.125.412,2.183,2.183,0,0,1-.479.716,2.214,2.214,0,0,1-1.555.645A2.178,2.178,0,0,1,83.655,69.144Zm8.783.043a2.2,2.2,0,0,1,0-4.407h10.845a2.2,2.2,0,0,1,0,4.407Zm-8.353-8.843a2.2,2.2,0,0,1,0-4.407h19.2a2.2,2.2,0,1,1,0,4.407Zm-61.545-15.4a7.79,7.79,0,1,1,7.79,7.79A7.8,7.8,0,0,1,22.541,44.942Zm4.407,0a3.383,3.383,0,1,0,3.383-3.383A3.387,3.387,0,0,0,26.948,44.942ZM84.085,51.5a2.2,2.2,0,0,1,0-4.407h19.2a2.2,2.2,0,1,1,0,4.407Zm0-8.843a2.2,2.2,0,0,1,0-4.407h19.2a2.2,2.2,0,1,1,0,4.407ZM2.2,27.072a2.2,2.2,0,0,1-2.2-2.2V2.2A2.2,2.2,0,0,1,2.2,0H110.617a2.2,2.2,0,0,1,2.2,2.2V24.869a2.2,2.2,0,0,1-2.2,2.2Zm2.2-4.406H108.414V4.407H4.407Zm95.911-1.889-1.8-1.8a7.039,7.039,0,1,1,3.116-3.117l1.8,1.8a2.2,2.2,0,0,1-3.117,3.116Zm-6.831-9.948a2.636,2.636,0,1,0,1.861-.769A2.613,2.613,0,0,0,93.488,10.829ZM22.65,19.73a2.2,2.2,0,0,1,0-4.407h45.8a2.2,2.2,0,1,1,0,4.407Zm53.719-.043a2.353,2.353,0,0,1-.411-.126,2.219,2.219,0,0,1-.379-.2,2.189,2.189,0,0,1-.338-.274,2.337,2.337,0,0,1-.274-.335,2.305,2.305,0,0,1-.2-.381,2.2,2.2,0,0,1,0-1.686,2.243,2.243,0,0,1,.2-.382,2.388,2.388,0,0,1,.274-.335,2.225,2.225,0,0,1,1.128-.6,2.173,2.173,0,0,1,.862,0,2.269,2.269,0,0,1,.412.125,2.174,2.174,0,0,1,.381.2,2.09,2.09,0,0,1,.335.273,2.212,2.212,0,0,1,.274.335,2.26,2.26,0,0,1,.328.794,2.178,2.178,0,0,1,.044.432,2.22,2.22,0,0,1-.646,1.557,2.048,2.048,0,0,1-.335.274,2.236,2.236,0,0,1-.381.2,2.271,2.271,0,0,1-.412.126,2.233,2.233,0,0,1-.43.041A2.2,2.2,0,0,1,76.369,19.687Z" fill="#c3ff87"/>
</svg>
