<svg xmlns="http://www.w3.org/2000/svg" width="144.454" height="144.299" viewBox="0 0 144.454 144.299">
  <path id="Union_5" data-name="Union 5" d="M39.86,144.3a3.527,3.527,0,0,1-3.523-3.523v-4.567a7.731,7.731,0,0,1,7.722-7.722h6.384V120.9H30.115a2.114,2.114,0,0,1,0-4.228h45.3v-5.294a4.162,4.162,0,0,1,4.158-4.159h1.677v-3.643H4.229v8.02a5.082,5.082,0,0,0,5.076,5.076h7.956a2.114,2.114,0,0,1,0,4.228H9.305A9.316,9.316,0,0,1,0,111.6V9.305A9.316,9.316,0,0,1,9.305,0H135.151a9.313,9.313,0,0,1,9.3,9.3l-.16,102.295a9.318,9.318,0,0,1-7.2,9.06v1a4.162,4.162,0,0,1-4.157,4.158H93.852v2.673h6.384a7.731,7.731,0,0,1,7.722,7.722v4.567a3.527,3.527,0,0,1-3.523,3.523Zm.7-8.091v3.863H103.73v-3.863a3.5,3.5,0,0,0-3.494-3.494H44.059A3.5,3.5,0,0,0,40.564,136.208Zm14.106-7.722H89.625v-2.673H79.575a4.162,4.162,0,0,1-4.158-4.157V120.9H54.67Zm24.976-6.9h53.22V111.451H79.646Zm51.614-14.362h1.676a4.163,4.163,0,0,1,4.159,4.157v4.833a5.077,5.077,0,0,0,2.972-4.613v-8.02H131.26Zm-45.78,0h41.551v-4.449H85.479Zm45.78-23.039h1.676a4.163,4.163,0,0,1,4.159,4.158s-.027,10.771-.069,11.011h3.041V28.759H4.228V99.352H75.487c-.043-.239-.07-11.011-.07-11.011a4.163,4.163,0,0,1,4.159-4.158h1.676V79.736H79.575a4.164,4.164,0,0,1-4.159-4.159V65.3a4.164,4.164,0,0,1,4.159-4.159H107.84a2.115,2.115,0,0,1,0,4.229H79.646V75.506h53.22V65.372H120.994a2.115,2.115,0,0,1,0-4.229h11.941a4.164,4.164,0,0,1,4.159,4.159V75.577a4.164,4.164,0,0,1-4.159,4.159H131.26ZM79.646,98.546h53.219V88.412H79.646Zm5.833-14.362h41.551V79.736H85.479ZM4.384,9.3V24.53H140.066V9.305a5.082,5.082,0,0,0-5.077-5.076H9.461A5.082,5.082,0,0,0,4.384,9.3Zm108.6,109.328a2.114,2.114,0,0,1,0-4.227h14.361a2.114,2.114,0,1,1,0,4.227Zm-10.471,0a2.114,2.114,0,1,1,0-4.227h3.29a2.114,2.114,0,1,1,0,4.227Zm-17.356,0a2.114,2.114,0,1,1,0-4.227H95.334a2.114,2.114,0,1,1,0,4.227Zm27.827-23.039a2.114,2.114,0,0,1,0-4.228H127.35a2.114,2.114,0,0,1,0,4.228Zm-10.471,0a2.114,2.114,0,1,1,0-4.228h3.29a2.114,2.114,0,1,1,0,4.228Zm-17.356,0a2.114,2.114,0,0,1,0-4.228H95.334a2.114,2.114,0,0,1,0,4.228ZM51.57,83.413a2.114,2.114,0,1,1,0-4.227h18.6a2.114,2.114,0,0,1,0,4.227Zm-21.453,0a2.114,2.114,0,1,1,0-4.227H44.357a2.114,2.114,0,1,1,0,4.227Zm-17.418,0a2.114,2.114,0,1,1,0-4.227H23.64a2.114,2.114,0,1,1,0,4.227Zm49.709-8.841a2.115,2.115,0,0,1,0-4.229h6.92a2.115,2.115,0,1,1,0,4.229Zm-36.224,0a2.115,2.115,0,0,1,0-4.229H44.331a2.115,2.115,0,0,1,0,4.229Zm-13.485,0a2.115,2.115,0,0,1,0-4.229h6.067a2.115,2.115,0,0,1,0,4.229Zm39.311,0a2.114,2.114,0,1,1,0-4.228H55.7a2.114,2.114,0,1,1,0,4.228Zm60.978-2.018a2.114,2.114,0,0,1,0-4.228H127.35a2.114,2.114,0,0,1,0,4.228Zm-10.471,0a2.114,2.114,0,1,1,0-4.228h3.29a2.114,2.114,0,0,1,0,4.228Zm-17.356,0a2.114,2.114,0,1,1,0-4.228H95.334a2.114,2.114,0,0,1,0,4.228ZM34.7,65.655a2.115,2.115,0,0,1,0-4.229h25.04a2.115,2.115,0,1,1,0,4.229Zm-22.005,0a2.115,2.115,0,0,1,0-4.229H26.941a2.115,2.115,0,0,1,0,4.229ZM83.986,55.507a2.115,2.115,0,0,1,0-4.229h18.041a2.115,2.115,0,0,1,0,4.229Zm-12.966,0a2.115,2.115,0,0,1,0-4.229h6.2a2.115,2.115,0,0,1,0,4.229Zm-22.239,0a2.115,2.115,0,1,1,0-4.229H63.973a2.115,2.115,0,0,1,0,4.229ZM22.9,53.105a2.115,2.115,0,0,1-1.2-2.741l5.208-13.257a2.114,2.114,0,1,1,3.935,1.546L25.643,51.91a2.113,2.113,0,0,1-2.741,1.2Zm9.58-.473a2.113,2.113,0,0,1,0-2.99l5.134-5.134-5.132-5.134a2.114,2.114,0,0,1,2.989-2.99L42.1,43.014A2.112,2.112,0,0,1,42.1,46l-6.628,6.629a2.113,2.113,0,0,1-2.989,0Zm-15.847,0L10.007,46a2.115,2.115,0,0,1,0-2.991l6.629-6.628a2.114,2.114,0,1,1,2.99,2.99l-5.134,5.133,5.134,5.134a2.114,2.114,0,0,1-2.99,2.99Zm47.619-6.427a2.115,2.115,0,0,1,0-4.229h44.537a2.115,2.115,0,0,1,0,4.229Zm-15.474,0a2.115,2.115,0,1,1,0-4.229h7.3a2.115,2.115,0,1,1,0,4.229Zm-7.8-31.886a6.2,6.2,0,1,1,6.2,6.2A6.211,6.211,0,0,1,40.98,14.319Zm4.227,0a1.976,1.976,0,1,0,1.976-1.976A1.978,1.978,0,0,0,45.207,14.319Zm-20.024,0a6.2,6.2,0,1,1,6.205,6.2A6.212,6.212,0,0,1,25.183,14.319Zm4.229,0a1.976,1.976,0,1,0,1.976-1.976A1.978,1.978,0,0,0,29.412,14.319Zm-20.024,0a6.2,6.2,0,1,1,6.2,6.2A6.211,6.211,0,0,1,9.388,14.319Zm4.227,0a1.976,1.976,0,1,0,1.976-1.976A1.978,1.978,0,0,0,13.615,14.319Z" fill="#c3ff87"/>
</svg>
