<svg xmlns="http://www.w3.org/2000/svg" width="135.408" height="135.408" viewBox="0 0 135.408 135.408">
  <path id="Union_7" data-name="Union 7" d="M45.028,135.408a3.7,3.7,0,0,1-3.7-3.7V121.14a6.879,6.879,0,0,1,6.876-6.868h4.816L36.6,93.342a2.635,2.635,0,0,1-.3-2.792L65.4,31.2a2.645,2.645,0,0,1,4.75,0L99.239,90.55a2.635,2.635,0,0,1-.3,2.794L82.472,114.272h4.872a6.88,6.88,0,0,1,6.877,6.868v10.569a3.7,3.7,0,0,1-3.7,3.7Zm1.587-14.268v8.984H88.93V121.14a1.588,1.588,0,0,0-1.587-1.585H48.2A1.588,1.588,0,0,0,46.615,121.14ZM41.786,91.384l17.949,22.887H75.744l18.015-22.89L67.772,38.372Zm18.994,9.743a10.561,10.561,0,0,1,4.349-18.16V64.136a2.644,2.644,0,0,1,5.288,0V82.969a10.559,10.559,0,0,1-1.975,20.767c-.23.013-.462.02-.691.02A10.492,10.492,0,0,1,60.78,101.127ZM66.056,88.2a5.284,5.284,0,0,0-.16,9.933,5.28,5.28,0,1,0,1.849-10.21A5.25,5.25,0,0,0,66.056,88.2ZM3.7,77.941a3.7,3.7,0,0,1-3.7-3.7V60.505a3.7,3.7,0,0,1,3.7-3.7H7.883a63.844,63.844,0,0,1,6.494-22.9A45.448,45.448,0,0,1,34.858,13.408H20.836a10.573,10.573,0,1,1,.1-5.284H57.193V3.766a3.705,3.705,0,0,1,3.7-3.7H74.649a3.705,3.705,0,0,1,3.7,3.7V7.99h36.221a10.606,10.606,0,0,1,1.3-3.042,10.576,10.576,0,1,1,11.314,15.913,10.648,10.648,0,0,1-2.391.274,10.556,10.556,0,0,1-10.179-7.855h-13.98a45.429,45.429,0,0,1,20.42,20.493,63.9,63.9,0,0,1,6.473,22.9h4.113a3.7,3.7,0,0,1,3.7,3.7V74.112a3.7,3.7,0,0,1-3.7,3.7H117.892a3.7,3.7,0,0,1-3.7-3.7V60.373a3.7,3.7,0,0,1,3.7-3.7h4.314a59.1,59.1,0,0,0-5.945-20.655,40.566,40.566,0,0,0-13.774-15.629C95.9,16.069,87.793,13.7,78.351,13.333v4.172a3.7,3.7,0,0,1-3.7,3.7H60.9a3.7,3.7,0,0,1-3.7-3.7V13.461c-9.516.368-17.682,2.759-24.3,7.116a40.671,40.671,0,0,0-13.8,15.734A58.791,58.791,0,0,0,13.2,56.806h4.253a3.7,3.7,0,0,1,3.7,3.7V74.244a3.7,3.7,0,0,1-3.7,3.7ZM5.29,72.657H15.869V62.09H5.29Zm114.188-.131h10.579V61.957H119.479Zm-57-56.607H73.062V5.351H62.483ZM5.355,10.569a5.289,5.289,0,1,0,5.29-5.284A5.293,5.293,0,0,0,5.355,10.569Zm115-2.809A5.283,5.283,0,1,0,125.949,5.4a5.346,5.346,0,0,0-5.594,2.355ZM65.132,53.569a2.643,2.643,0,0,1,2.643-2.642h0a2.642,2.642,0,1,1-2.646,2.642Z" fill="#c3ff87"/>
</svg>
