<svg xmlns="http://www.w3.org/2000/svg" width="73.774" height="73.774" viewBox="0 0 73.774 73.774">
  <path id="Union_6" data-name="Union 6" d="M63.685,73.774a1.442,1.442,0,0,1-1.441-1.441V69.449H42.583v2.884a1.442,1.442,0,0,1-1.441,1.441H32.494a1.441,1.441,0,0,1-1.441-1.441V69.449H11.53v2.884a1.441,1.441,0,0,1-1.441,1.441H1.441A1.441,1.441,0,0,1,0,72.333V63.685a1.442,1.442,0,0,1,1.441-1.441H4.325V42.718H1.441A1.442,1.442,0,0,1,0,41.277V32.628a1.442,1.442,0,0,1,1.441-1.441H4.325V11.53H1.441A1.441,1.441,0,0,1,0,10.089V1.441A1.441,1.441,0,0,1,1.441,0h8.648A1.441,1.441,0,0,1,11.53,1.441V4.325h4.706a1.441,1.441,0,1,1,0,2.882H11.53v2.883a1.441,1.441,0,0,1-1.441,1.441H7.206V31.187h2.883a1.442,1.442,0,0,1,1.441,1.441v8.649a1.442,1.442,0,0,1-1.441,1.441H7.206V62.244h2.883a1.442,1.442,0,0,1,1.441,1.441v2.883H31.054V63.685a1.441,1.441,0,0,1,1.441-1.441h8.648a1.442,1.442,0,0,1,1.441,1.441v2.883H62.244V63.685a1.442,1.442,0,0,1,1.441-1.441h2.883V42.718H63.685a1.442,1.442,0,0,1-1.441-1.441V32.628a1.442,1.442,0,0,1,1.441-1.441h2.883V11.53H63.685a1.442,1.442,0,0,1-1.441-1.441V7.206H42.583v2.883a1.442,1.442,0,0,1-1.441,1.441H32.494a1.441,1.441,0,0,1-1.441-1.441V7.206H26.347a1.441,1.441,0,1,1,0-2.882h4.707V1.441A1.441,1.441,0,0,1,32.494,0h8.648a1.442,1.442,0,0,1,1.441,1.441V4.325H62.244V1.441A1.442,1.442,0,0,1,63.685,0h8.648a1.441,1.441,0,0,1,1.441,1.441v8.648a1.441,1.441,0,0,1-1.441,1.441H69.449V31.187h2.884a1.442,1.442,0,0,1,1.441,1.441v8.649a1.442,1.442,0,0,1-1.441,1.441H69.449V62.244h2.884a1.442,1.442,0,0,1,1.441,1.441v8.648a1.441,1.441,0,0,1-1.441,1.441Zm1.441-2.882h5.766V65.126H65.126Zm-31.19,0H39.7V65.126H33.935Zm-31.054,0H8.648V65.126H2.882ZM65.126,39.836h5.766V34.069H65.126Zm-62.244,0H8.648V34.069H2.882ZM65.126,8.648h5.766V2.882H65.126Zm-31.19,0H39.7V2.882H33.935Zm-31.054,0H8.648V2.882H2.882ZM32.565,49.857a1.441,1.441,0,1,1,0-2.882h2.882V26.8H26.8v2.882a1.441,1.441,0,1,1-2.882,0V25.362a1.44,1.44,0,0,1,1.441-1.441H48.415a1.441,1.441,0,0,1,1.441,1.441v4.323a1.441,1.441,0,1,1-2.882,0V26.8H38.328V46.976H41.21a1.441,1.441,0,1,1,0,2.882ZM19.852,5.765a1.441,1.441,0,0,1,1.441-1.441h0a1.441,1.441,0,1,1-1.442,1.441Z" fill="#c3ff87"/>
</svg>
