<svg xmlns="http://www.w3.org/2000/svg" width="14.289" height="14.289" viewBox="0 0 14.289 14.289">
  <g id="phone" transform="translate(0)">
    <path id="Path_11" data-name="Path 11" d="M10.27,14.289A3.981,3.981,0,0,1,8.9,14.045a14.565,14.565,0,0,1-5.289-3.371A14.564,14.564,0,0,1,.244,5.385a3.952,3.952,0,0,1-.2-1.943A4.053,4.053,0,0,1,2.126.476,3.979,3.979,0,0,1,4.031,0a.447.447,0,0,1,.437.353l.7,3.271a.447.447,0,0,1-.121.409l-1.2,1.2A11.754,11.754,0,0,0,9.059,10.44l1.2-1.2a.447.447,0,0,1,.409-.121l3.271.7a.447.447,0,0,1,.353.437,3.979,3.979,0,0,1-.476,1.905,4.053,4.053,0,0,1-2.967,2.083,3.972,3.972,0,0,1-.577.042ZM3.674.913a3.129,3.129,0,0,0-2.59,4.168,13.544,13.544,0,0,0,8.125,8.125,3.129,3.129,0,0,0,4.168-2.59l-2.661-.57L9.466,11.3a.446.446,0,0,1-.506.088A12.644,12.644,0,0,1,2.905,5.33a.446.446,0,0,1,.088-.506L4.244,3.573Z" transform="translate(0 0)" fill="#f68933"/>
    <path id="Path_12" data-name="Path 12" d="M247.164,7.591a.447.447,0,0,1-.447-.447A6.258,6.258,0,0,0,240.467.893a.447.447,0,1,1,0-.893,7.144,7.144,0,0,1,7.144,7.144A.447.447,0,0,1,247.164,7.591Z" transform="translate(-233.321)" fill="#f68933"/>
    <path id="Path_13" data-name="Path 13" d="M245.378,69.8a.447.447,0,0,1-.447-.447,4.47,4.47,0,0,0-4.465-4.465.447.447,0,1,1,0-.893,5.364,5.364,0,0,1,5.358,5.358A.447.447,0,0,1,245.378,69.8Z" transform="translate(-233.321 -62.214)" fill="#f68933"/>
    <path id="Path_14" data-name="Path 14" d="M243.592,132.019a.447.447,0,0,1-.447-.447,2.682,2.682,0,0,0-2.679-2.679.447.447,0,1,1,0-.893,3.576,3.576,0,0,1,3.572,3.572A.447.447,0,0,1,243.592,132.019Z" transform="translate(-233.321 -124.428)" fill="#f68933"/>
  </g>
</svg>
