<svg xmlns="http://www.w3.org/2000/svg" width="78.975" height="78.975" viewBox="0 0 78.975 78.975">
  <g id="quality" transform="translate(0.001)">
    <g id="Group_8" data-name="Group 8" transform="translate(-0.001 0)">
      <path id="Path_3" data-name="Path 3" d="M94.1,61.34a1.542,1.542,0,1,0-.723,3,27.764,27.764,0,1,1-13.063,0,1.542,1.542,0,0,0-.723-3A31,31,0,0,0,62.722,72.106,30.516,30.516,0,0,0,56,91.329a30.849,30.849,0,1,0,61.7,0,30.516,30.516,0,0,0-6.722-19.224A31,31,0,0,0,94.1,61.34Z" transform="translate(-47.363 -51.842)" fill="#fff"/>
      <path id="Path_4" data-name="Path 4" d="M78.045,35.777l-1.8-3.367.3-4.162a7.873,7.873,0,0,0-2.85-6.97l-3-2.453-1.178-3.55a7.928,7.928,0,0,0-5.4-5.7l-3.7-1.117L57.593,5.183A7.894,7.894,0,0,0,50.809,2.44l-3.838.382L43.2.93a7.869,7.869,0,0,0-7.422,0l-3.367,1.8-4.162-.3a7.872,7.872,0,0,0-6.97,2.85l-2.453,3L15.276,9.457a7.928,7.928,0,0,0-5.7,5.4l-1.117,3.7L5.183,21.382A7.893,7.893,0,0,0,2.44,28.166L2.822,32,.929,35.776a7.87,7.87,0,0,0,0,7.422l1.8,3.367-.3,4.162a7.874,7.874,0,0,0,2.85,6.97l3,2.453L9.457,63.7a7.928,7.928,0,0,0,5.4,5.7l3.7,1.117,2.832,3.273a7.892,7.892,0,0,0,6.784,2.743L32,76.153l3.772,1.892a7.869,7.869,0,0,0,7.422,0l3.367-1.8,4.162.3a7.876,7.876,0,0,0,6.97-2.85l2.453-3,3.55-1.178a7.928,7.928,0,0,0,5.7-5.4l1.117-3.7,3.273-2.832a7.893,7.893,0,0,0,2.743-6.784l-.383-3.837L78.044,43.2a7.87,7.87,0,0,0,0-7.422ZM75.316,41.76l-.02.038-2.1,4.19a1.543,1.543,0,0,0-.156.845l.427,4.28a4.813,4.813,0,0,1-1.682,4.139l-3.621,3.133a1.541,1.541,0,0,0-.467.72L66.448,63.23a4.835,4.835,0,0,1-3.523,3.3c-.046.011-.091.023-.136.038l-4.037,1.34a1.543,1.543,0,0,0-.708.487l-2.736,3.342a4.8,4.8,0,0,1-4.27,1.735l-.061-.006-4.637-.335a1.542,1.542,0,0,0-.84.179l-3.758,2.014a4.789,4.789,0,0,1-4.528-.009l-.038-.02-4.19-2.1a1.543,1.543,0,0,0-.692-.164q-.076,0-.153.008l-4.28.426a4.811,4.811,0,0,1-4.139-1.681L20.59,68.162a1.541,1.541,0,0,0-.72-.467l-4.125-1.246a4.834,4.834,0,0,1-3.3-3.523q-.016-.069-.038-.136l-1.34-4.037a1.541,1.541,0,0,0-.487-.707L7.237,55.309A4.8,4.8,0,0,1,5.5,51.039c0-.02,0-.041.006-.061l.335-4.637a1.542,1.542,0,0,0-.179-.84L3.65,41.743a4.79,4.79,0,0,1,.009-4.528l.02-.038,2.1-4.19a1.542,1.542,0,0,0,.156-.845l-.426-4.281a4.813,4.813,0,0,1,1.682-4.139l3.621-3.133a1.543,1.543,0,0,0,.467-.72l1.246-4.126a4.835,4.835,0,0,1,3.523-3.3q.069-.016.136-.038l4.037-1.34a1.541,1.541,0,0,0,.707-.487l2.737-3.342A4.8,4.8,0,0,1,27.935,5.5L28,5.508l4.637.335a1.548,1.548,0,0,0,.84-.179L37.231,3.65a4.789,4.789,0,0,1,4.528.009l.038.02,4.19,2.1a1.54,1.54,0,0,0,.845.156l4.281-.426a4.812,4.812,0,0,1,4.139,1.682l3.133,3.621a1.542,1.542,0,0,0,.72.467l4.125,1.246a4.835,4.835,0,0,1,3.3,3.523q.016.069.038.136l1.34,4.037a1.542,1.542,0,0,0,.487.707l3.342,2.736a4.8,4.8,0,0,1,1.735,4.27c0,.02,0,.041-.006.061l-.335,4.637a1.544,1.544,0,0,0,.179.84l2.014,3.758a4.789,4.789,0,0,1-.009,4.528Z" transform="translate(0.001 0)" fill="#fff"/>
      <path id="Path_5" data-name="Path 5" d="M151.821,115.823a1.541,1.541,0,0,0-1.393-.883h-8.15a1.542,1.542,0,0,0-1.542,1.542v23.348a1.542,1.542,0,0,0,1.542,1.542h8.15a1.542,1.542,0,0,0,1.422-.943,29.234,29.234,0,0,1,3.648.849,22.176,22.176,0,0,0,5.893,1.068h8.9a6.187,6.187,0,0,0,5.967-3.9,5.536,5.536,0,0,0,.283-3.462,5.565,5.565,0,0,0,1.272-1.7,5.876,5.876,0,0,0,.42-4.166,5.775,5.775,0,0,0,1.521-5.426,4.646,4.646,0,0,0,.888-7.39,4.823,4.823,0,0,0-3.346-1.317H164.749a4.189,4.189,0,0,1-.707-4.126,8.007,8.007,0,0,0-.224-7.36c-.942-1.788-3.474-3.567-5.6-3.263a2.919,2.919,0,0,0-2.49,2.433,9.018,9.018,0,0,0-.128,1.313,10.9,10.9,0,0,1-1.2,4.893,13,13,0,0,0-1.158,4C152.94,114.643,152.794,115.5,151.821,115.823Zm-8,2.2h5.065v20.263h-5.065Zm12.461-4.641a10.436,10.436,0,0,1,.852-3.09,13.981,13.981,0,0,0,1.545-6.161,7.749,7.749,0,0,1,.07-.857v0a3.616,3.616,0,0,1,2.34,1.656,4.925,4.925,0,0,1,.1,4.739,7.118,7.118,0,0,0,.045,5.326,1.542,1.542,0,0,0,.214,3.068H177.3a1.752,1.752,0,0,1,1.219.466,1.571,1.571,0,0,1,.483,1.175,1.66,1.66,0,0,1-1.656,1.562l-3.97.086a1.543,1.543,0,0,0,.033,3.085h.034l3.306-.072a2.508,2.508,0,0,1-.063,1.556,2.065,2.065,0,0,1-2.017,1.521,1.542,1.542,0,1,0,0,3.085,5.453,5.453,0,0,0,.688-.043,3.02,3.02,0,0,1-.31,1.437,2.063,2.063,0,0,1-1.9,1.269,1.542,1.542,0,1,0,0,3.085q.239,0,.474-.021a2.91,2.91,0,0,1-.232,1.071,3.148,3.148,0,0,1-3.091,1.936h-8.9a19.611,19.611,0,0,1-5.07-.956,29.633,29.633,0,0,0-4.351-.971v-18.39C155.444,118.316,155.923,115.5,156.282,113.385Z" transform="translate(-119.028 -84.74)" fill="#fff"/>
      <path id="Path_6" data-name="Path 6" d="M247.542,59.086a1.542,1.542,0,0,0,0-3.085h0a1.542,1.542,0,0,0,0,3.085Z" transform="translate(-208.054 -47.363)" fill="#fff"/>
    </g>
  </g>
</svg>
