<svg id="outline" height="512" viewBox="0 0 512 512" width="512" xmlns="http://www.w3.org/2000/svg"><path d="m176 392h-64a7.99977 7.99977 0 0 0 -8 8v56a7.99977 7.99977 0 0 0 8 8h64a7.99977 7.99977 0 0 0 8-8v-56a7.99977 7.99977 0 0 0 -8-8zm-8 56h-48v-40h48z"/><path d="m200 440h40v16h-40z"/><path d="m256 440h48v16h-48z"/><path d="m200 408h16v16h-16z"/><path d="m232 408h24v16h-24z"/><path d="m256 311.98145a39.874 39.874 0 0 0 28.28418-11.69727l-11.31348-11.31348a24.00019 24.00019 0 1 1 0-33.9414l11.31348-11.31348a39.99988 39.99988 0 1 0 -28.28418 68.26563z"/><path d="m72 488a7.99977 7.99977 0 0 0 8 8h352a7.99977 7.99977 0 0 0 8-8v-304a7.98023 7.98023 0 0 0 -1.953-5.21234l.01257-.0108-38.05957-44.15632v-23.9931a23.843 23.843 0 0 0 -7.02979-16.9707l-70.627-70.62695a23.843 23.843 0 0 0 -16.97065-7.02979h-169.37256a24.0275 24.0275 0 0 0 -24 24v93.10321l-38.146 45.77521.01587.01318a7.975 7.975 0 0 0 -1.86987 5.1084zm352-8h-336v-275.30713l66.08057 72.68848a7.99916 7.99916 0 0 0 5.91943 2.61865h16.401a80 80 0 0 0 159.198 0h16.401a7.99916 7.99916 0 0 0 5.91943-2.61865l66.08057-72.68848zm-168-272a64 64 0 1 1 -64 64 64.0727 64.0727 0 0 1 64-64zm165.31677-24.14117-21.31677 23.44836v-48.17987zm-285.31677-151.85883h160v56a24.02687 24.02687 0 0 0 24 24h32v-16h-32a8.00917 8.00917 0 0 1 -8-8v-52.68652l69.65674 69.65673a7.94834 7.94834 0 0 1 2.34326 5.65723v114.27973l-35.53906 39.09283h-12.86194a79.76953 79.76953 0 0 0 -22.53992-48h46.94092v-16h-69.15417a79.88949 79.88949 0 0 0 -69.69166 0h-45.15417v16h22.94092a79.76953 79.76953 0 0 0 -22.53992 48h-12.86194l-35.53906-39.09283v-184.90717a8.00917 8.00917 0 0 1 8-8zm-24 175.30719-21.39587-23.5354 21.39587-25.67499z"/><path d="m152 56h16v16h-16z"/><path d="m184 56h88v16h-88z"/><path d="m192 160h72v16h-72z"/><path d="m280 160h80v16h-80z"/><path d="m144 200h16v16h-16z"/><path d="m152 96h64v16h-64z"/><path d="m232 96h40v16h-40z"/></svg>