<svg xmlns="http://www.w3.org/2000/svg" width="17" height="20.376" viewBox="0 0 17 20.376">
  <g id="user" transform="translate(0 0)">
    <path id="Path_15" data-name="Path 15" d="M91.858,10.039A4.581,4.581,0,0,0,95.27,8.568a4.957,4.957,0,0,0,1.414-3.549A4.957,4.957,0,0,0,95.27,1.47a4.695,4.695,0,0,0-6.825,0,4.956,4.956,0,0,0-1.414,3.549,4.957,4.957,0,0,0,1.414,3.549A4.583,4.583,0,0,0,91.858,10.039Zm-2.582-7.7a3.552,3.552,0,0,1,5.164,0,3.7,3.7,0,0,1,1.07,2.685A3.7,3.7,0,0,1,94.44,7.7a3.552,3.552,0,0,1-5.164,0,3.7,3.7,0,0,1-1.07-2.685,3.7,3.7,0,0,1,1.07-2.685Zm0,0" transform="translate(-83.49)" fill="#f68933"/>
    <path id="Path_16" data-name="Path 16" d="M16.959,253.275a12.664,12.664,0,0,0-.165-1.317,10.571,10.571,0,0,0-.317-1.324,6.617,6.617,0,0,0-.532-1.235,4.644,4.644,0,0,0-.8-1.07,3.528,3.528,0,0,0-1.153-.741,3.905,3.905,0,0,0-1.472-.272,1.475,1.475,0,0,0-.8.346c-.239.159-.519.344-.831.548a4.71,4.71,0,0,1-1.075.484,4.087,4.087,0,0,1-2.63,0,4.7,4.7,0,0,1-1.074-.484c-.309-.2-.589-.387-.832-.548a1.474,1.474,0,0,0-.8-.346,3.9,3.9,0,0,0-1.471.273,3.525,3.525,0,0,0-1.153.741,4.645,4.645,0,0,0-.8,1.069,6.628,6.628,0,0,0-.532,1.235,10.6,10.6,0,0,0-.317,1.324,12.579,12.579,0,0,0-.165,1.317c-.027.4-.041.812-.041,1.231a3.5,3.5,0,0,0,1,2.618,3.571,3.571,0,0,0,2.589.966h9.811a3.571,3.571,0,0,0,2.589-.966A3.5,3.5,0,0,0,17,254.505c0-.42-.014-.834-.041-1.231Zm-1.787,2.964a2.4,2.4,0,0,1-1.766.629H3.594a2.4,2.4,0,0,1-1.766-.629,2.288,2.288,0,0,1-.634-1.733c0-.39.013-.776.038-1.146a11.346,11.346,0,0,1,.149-1.186,9.345,9.345,0,0,1,.278-1.167,5.4,5.4,0,0,1,.433-1,3.443,3.443,0,0,1,.59-.79,2.339,2.339,0,0,1,.767-.488,2.694,2.694,0,0,1,.94-.186c.042.023.116.066.237.147.245.164.528.35.841.555a5.853,5.853,0,0,0,1.35.617,5.255,5.255,0,0,0,3.365,0,5.857,5.857,0,0,0,1.35-.617c.32-.209.6-.39.841-.554.121-.08.2-.124.237-.147a2.7,2.7,0,0,1,.941.186,2.343,2.343,0,0,1,.767.488,3.434,3.434,0,0,1,.59.79,5.378,5.378,0,0,1,.433,1,9.321,9.321,0,0,1,.279,1.167,11.44,11.44,0,0,1,.149,1.186h0c.025.369.038.754.038,1.146a2.288,2.288,0,0,1-.634,1.733Zm0,0" transform="translate(0 -237.713)" fill="#f68933"/>
  </g>
</svg>
