<svg xmlns="http://www.w3.org/2000/svg" width="72.981" height="72.98" viewBox="0 0 72.981 72.98">
  <g id="world" transform="translate(0 -0.001)">
    <g id="Group_10" data-name="Group 10" transform="translate(52.545 65.432)">
      <g id="Group_9" data-name="Group 9">
        <path id="Path_7" data-name="Path 7" d="M371.343,459.746a1.426,1.426,0,0,0-1.948-.517l-.055.032a1.425,1.425,0,1,0,1.431,2.466l.055-.032A1.426,1.426,0,0,0,371.343,459.746Z" transform="translate(-368.63 -459.036)" fill="#fff"/>
      </g>
    </g>
    <g id="Group_12" data-name="Group 12" transform="translate(0 0.001)">
      <g id="Group_11" data-name="Group 11" transform="translate(0 0)">
        <path id="Path_8" data-name="Path 8" d="M68.091,18.257a36.481,36.481,0,0,0-66.832,8.8A36.488,36.488,0,0,0,49.547,70.571a1.425,1.425,0,0,0-1.023-2.661,33.415,33.415,0,0,1-32.155-4.419l1.277-6.666.615-.2a4.44,4.44,0,0,0,2.847-5.587l-.452-1.39a1.574,1.574,0,0,1,0-.983A4.435,4.435,0,0,0,17.3,42.931L14.079,42.3,7.872,37.583a1.426,1.426,0,0,0-1.3-.221L2.934,38.542a33.6,33.6,0,0,1,0-3.892c.143.134.237.224.294.284a1.494,1.494,0,0,0,1.392.714,20.7,20.7,0,0,0,2.554-.291c1.2-.178,2.4-.378,2.41-.38a1.425,1.425,0,0,0,.942-2.208L8.775,30.206l2.5-1.79a1.426,1.426,0,0,0,.408-.451l3.88-6.774,1.564-1.676a6.021,6.021,0,0,0,1.162-6.385,6.555,6.555,0,0,0-2.6-3.058A33.588,33.588,0,0,1,36.107,2.878L33.562,6.07,24.124,9.379a1.425,1.425,0,0,0-.846.8l-2.636,6.39a1.426,1.426,0,0,0,.158,1.372l3.85,5.393A13.547,13.547,0,0,0,22.92,25.48c-.281.4-.546.776-.73.987-.16.184-.319.363-.477.541a13.338,13.338,0,0,0-2.292,3.182,8.494,8.494,0,0,0,.7,8.586,8,8,0,0,0,7.553,3.241,11.1,11.1,0,0,0,1.392-.281c1.222-.3,1.609-.333,2,.034.191.179.208.212.2.818A5.54,5.54,0,0,0,31.4,44a4.5,4.5,0,0,0,1.2,1.968,3.194,3.194,0,0,1,.517.659c.445,1.065.251,1.655-.173,2.948q-.055.166-.111.339c-.644,1.995.254,3.974,1.046,5.719.257.567.5,1.1.66,1.575,1.282,3.8,2.242,4.674,3.013,5.024A2.971,2.971,0,0,0,38.8,62.5c2.055,0,4.2-1.908,5.184-3.117a4.381,4.381,0,0,0,.882-2.075,2.272,2.272,0,0,1,.182-.637,3.735,3.735,0,0,1,.468-.6,4.944,4.944,0,0,0,1.166-1.936,3.137,3.137,0,0,1,.967-1.518c.1-.1.2-.216.315-.338,1.9-2.066,1.41-3.644.892-5.315-.436-1.406.326-2.305,2.169-4.021A15.4,15.4,0,0,0,53.292,40.5a3.077,3.077,0,0,0,.6-2.855c-.516-1.2-1.826-1.4-2.879-1.558a4.723,4.723,0,0,1-1.244-.291,6.738,6.738,0,0,1-1.943-2.944c-.1-.232-.206-.46-.31-.682-.185-.4-.37-.875-.566-1.382a11.957,11.957,0,0,0-2.107-3.924c-.9-.953-2.595-1.412-4.09-1.817-.5-.136-.978-.265-1.291-.38a1.423,1.423,0,0,0-.819-.051,3.7,3.7,0,0,0-1.519.629,1.771,1.771,0,0,0-.507.683,16.3,16.3,0,0,1-1.681-1.023l-.028-.018a2.021,2.021,0,0,0-.127-1.372c-.8-1.684-3.439-1.552-3.961-1.508-.3.025-.671.038-1.067.052-.623.022-1.311.047-1.992.123l.035-.1a3.644,3.644,0,0,1,3.422-2.408h.81a1.425,1.425,0,1,0,0-2.851h-.81A6.506,6.506,0,0,0,25.7,19.906l-2.126-2.978,2.092-5.07,9.223-3.233a1.426,1.426,0,0,0,.643-.457l4.1-5.143A33.613,33.613,0,0,1,65.622,19.682a33.262,33.262,0,0,1,3.359,8.158l-.6.539a3.807,3.807,0,0,0-1.268,2.769c0,.012,0,.023,0,.034l-.984-2.707a3.558,3.558,0,0,0-.642-1.1l-1.756-2.056a3.572,3.572,0,0,0-2.72-1.254H58.856a2.064,2.064,0,0,0-1.718,3.21l.218.327A15.8,15.8,0,0,1,52.65,30.4L49.7,24.753V23.494a1.424,1.424,0,0,0-.441-1.031L46.61,19.93a1.427,1.427,0,0,0-.512-.314l-2.388-.839a1.425,1.425,0,1,0-.945,2.689l2.1.738,1.99,1.9v1a1.426,1.426,0,0,0,.162.66L50.7,32.827a1.425,1.425,0,0,0,1.757.678l1.074-.4a18.653,18.653,0,0,0,6.688-4.281,1.425,1.425,0,0,0,.178-1.8l-.076-.114h.681a.726.726,0,0,1,.552.255l1.756,2.056a.724.724,0,0,1,.13.224l1.938,5.329a1.425,1.425,0,0,0,2.347.521l.922-.922a4.45,4.45,0,0,0,1.178-2.143A33.752,33.752,0,0,1,57.3,62.93a1.425,1.425,0,1,0,1.76,2.242,36.488,36.488,0,0,0,9.032-46.915ZM6.74,40.3l5.877,4.469a1.424,1.424,0,0,0,.589.264l3.542.692a1.584,1.584,0,0,1,1.2,2.048,4.406,4.406,0,0,0,0,2.752l.452,1.389a1.586,1.586,0,0,1-1.017,2l-1.416.46a1.425,1.425,0,0,0-.959,1.087l-1.14,5.951a34.007,34.007,0,0,1-6.493-8.1,33.453,33.453,0,0,1-4.141-11.87ZM15.047,17.57l-1.677,1.8a1.431,1.431,0,0,0-.195.264L9.368,26.278,5.984,28.7a1.425,1.425,0,0,0-.349,1.962L6.9,32.517c-.73.109-1.384.2-1.82.246-.084-.08-.171-.162-.262-.246-.339-.315-.81-.735-1.511-1.349A33.69,33.69,0,0,1,13.347,12.1a3.706,3.706,0,0,1,2.31,2.115A3.163,3.163,0,0,1,15.047,17.57Zm11.621,7.789a9.14,9.14,0,0,1,3.189-.448c.432-.015.84-.03,1.2-.06a3.877,3.877,0,0,1,.607,0,1.425,1.425,0,0,0,.656,1.773c.267.143.64.391,1.034.654a8.213,8.213,0,0,0,3.563,1.66,2.365,2.365,0,0,0,1.936-.807c.021-.021.04-.042.06-.061a1.527,1.527,0,0,0,.381-.467c.228.065.467.13.713.2a9.491,9.491,0,0,1,2.762,1.022,10.117,10.117,0,0,1,1.521,2.995c.214.555.417,1.078.644,1.563.1.208.193.423.291.64a8.9,8.9,0,0,0,2.985,4.164,5.892,5.892,0,0,0,2.372.723l.31.049a13.782,13.782,0,0,1-1.809,1.9c-1.765,1.643-3.96,3.688-2.949,6.951.477,1.541.5,1.707-.268,2.542-.1.114-.2.218-.293.315a5.857,5.857,0,0,0-1.607,2.607,2.225,2.225,0,0,1-.58.906,6.364,6.364,0,0,0-.8,1.056,4.619,4.619,0,0,0-.516,1.514,1.745,1.745,0,0,1-.3.836,8.309,8.309,0,0,1-1.8,1.591,2.352,2.352,0,0,1-1.194.476A10.168,10.168,0,0,1,37.249,56.3c-.205-.61-.49-1.237-.765-1.843-.607-1.337-1.235-2.72-.929-3.665q.054-.167.107-.327a6.227,6.227,0,0,0,.1-4.935,5.14,5.14,0,0,0-1.038-1.479,2.65,2.65,0,0,1-.544-.723,3.081,3.081,0,0,1-.047-.721,3.535,3.535,0,0,0-1.107-2.918c-1.577-1.476-3.417-1.022-4.634-.721a8.941,8.941,0,0,1-1.04.217,5.121,5.121,0,0,1-4.906-2.074A5.643,5.643,0,0,1,22,31.408,10.822,10.822,0,0,1,23.844,28.9c.165-.186.333-.374.5-.567.278-.32.584-.754.907-1.214A10.3,10.3,0,0,1,26.668,25.359Z" transform="translate(0 -0.001)" fill="#fff"/>
      </g>
    </g>
    <g id="Group_14" data-name="Group 14" transform="translate(49.911 45.43)">
      <g id="Group_13" data-name="Group 13">
        <path id="Path_9" data-name="Path 9" d="M358.684,322.356,358,319.771a1.425,1.425,0,0,0-2.63-.314c-.156.288-.3.593-.433.888a6.126,6.126,0,0,1-.712,1.293,3.147,3.147,0,0,1-.837.5,3.919,3.919,0,0,0-2.374,2.307,4.176,4.176,0,0,0-.094,2.011,1.3,1.3,0,0,1-.036.84l-.014.033c-.454,1.065-1.3,3.047-.114,4.732a2.969,2.969,0,0,0,2.423,1.512,2.315,2.315,0,0,0,.38-.031c1.454-.238,2.547-1.75,3.44-4.76l1.677-5.65A1.425,1.425,0,0,0,358.684,322.356Zm-4.42,5.611a8.645,8.645,0,0,1-1.091,2.569c-.027-.034-.056-.073-.087-.117-.272-.388.135-1.344.4-1.976l.014-.033a4.011,4.011,0,0,0,.234-2.375,1.5,1.5,0,0,1-.006-.74c.056-.178.39-.35.893-.593.223-.108.469-.226.717-.37Z" transform="translate(-350.15 -318.711)" fill="#fff"/>
      </g>
    </g>
    <g id="Group_16" data-name="Group 16" transform="translate(36.497 16.829)">
      <g id="Group_15" data-name="Group 15">
        <path id="Path_10" data-name="Path 10" d="M258.037,118.173l-.1-.034a1.425,1.425,0,0,0-.943,2.69l.1.034a1.425,1.425,0,1,0,.944-2.69Z" transform="translate(-256.044 -118.059)" fill="#fff"/>
      </g>
    </g>
  </g>
</svg>
