<svg xmlns="http://www.w3.org/2000/svg" viewBox="0 0 188.69 82.55"><defs><style>.cls-1{fill:#fdfefe;}</style></defs><g id="Layer_2" data-name="Layer 2"><g id="Layer_1-2" data-name="Layer 1"><path class="cls-1" d="M134.23,37.08l-20.06-.32-1.44.64L96.19,56.18l-2.31,6.26c-1.12,3-1,5.61.3,7.71a7.16,7.16,0,0,0,6.41,3.37l19.26.31a14.55,14.55,0,0,0,8.79-3.13,16.1,16.1,0,0,0,6-7.61l5.89-15.94C142.51,41.68,139.71,37.17,134.23,37.08Zm-8.3,26.43a3.22,3.22,0,0,1-1.19,1.42,3,3,0,0,1-1.8.53l-2.6,0v0l-14.06-.22h0l-2.59,0a1.61,1.61,0,0,1-1.4-.58,1.56,1.56,0,0,1-.13-1.44l5.92-16a3.22,3.22,0,0,1,1.2-1.44,3.08,3.08,0,0,1,1.81-.53l2.59,0v0l18.92.31Z"/><path class="cls-1" d="M188.69,38,167.26,56.1l7.85,18.62-10.45-.17-6.23-14.76-17,14.39L131,74l21.43-18.14-7.85-18.62,10.44.17,6.24,14.76,17-14.39Z"/><path class="cls-1" d="M76.7,73.16s-7.93,9.15-23.93,4.38c0,0-8.45-1.84-6-12.48l7-30.41L44.51,22.53,44,20.68S51.1,14.76,63,15.14c9,.29,12.28,4.55,11.34,10.38s-8.87,40.59-9.31,42.35C64.71,69.21,64.67,81.06,76.7,73.16Z"/><path class="cls-1" d="M90.17,18.5,101,20.64,75,50c-.79.9-.84,2-.11,2.49a2.32,2.32,0,0,0,2.74-.72l8.25-8.9a2.34,2.34,0,0,1,2.76-.72c.73.48.68,1.59-.11,2.49L75,60.15c-.76.86-.84,1.93-.19,2.44a2.28,2.28,0,0,0,2.84-.66L89.67,49c.94-1,2.36-1.32,3.12-.69s.56,1.78-.3,2.71L82.16,62.13c-.84.9-.92,2-.18,2.54a2.32,2.32,0,0,0,2.81-.76L141.08,0Z"/><path class="cls-1" d="M75,55a2.25,2.25,0,0,0-2.74.69L69,59.28c-.81.88-.89,2-.18,2.48a1.38,1.38,0,0,0,.78.23,2.71,2.71,0,0,0,2-.92l3.33-3.62C75.64,56.58,75.72,55.47,75,55Z"/><path class="cls-1" d="M78.59,63.71a2.32,2.32,0,0,0-2.74.75L69.9,71.14c-.79.89-.84,2-.11,2.46a1.44,1.44,0,0,0,.75.22,2.74,2.74,0,0,0,2-1l6-6.67C79.27,65.29,79.32,64.19,78.59,63.71Z"/><path class="cls-1" d="M9.78,68c.8-.88.87-2,.15-2.47a2.29,2.29,0,0,0-2.74.72L.64,73.45c-.79.88-.86,2-.14,2.47a1.4,1.4,0,0,0,.77.23,2.73,2.73,0,0,0,2-1Z"/><path class="cls-1" d="M9.64,73.32a2.29,2.29,0,0,0-2.74.73L1.67,79.87c-.79.88-.85,2-.13,2.47a1.38,1.38,0,0,0,.76.21,2.7,2.7,0,0,0,2-1l5.23-5.82C10.3,74.9,10.36,73.8,9.64,73.32Z"/><path class="cls-1" d="M17.71,70a2.26,2.26,0,0,0-2.74.68l-3.65,3.94c-.81.87-.89,2-.19,2.48a1.39,1.39,0,0,0,.79.24,2.71,2.71,0,0,0,1.94-.92l3.66-3.94C18.33,71.61,18.41,70.5,17.71,70Z"/><path class="cls-1" d="M44,20.68l-35.13,40c-.73.84-.81,1.87-.18,2.36a2.2,2.2,0,0,0,2.76-.64l8-8.63c.9-1,2.27-1.28,3-.68s.56,1.64-.22,2.53L12.67,66.42c-.76.87-.84,1.94-.19,2.46s2,.24,2.88-.69l11.4-12.55c.93-1,2.37-1.36,3.15-.74s.61,1.73-.22,2.67L20,68.63c-.77.88-.84,2-.17,2.47h0c.73.56,2.07.22,2.9-.75l31.15-35.7S60.88,12.11,44,20.68Z"/></g></g></svg>