<svg xmlns="http://www.w3.org/2000/svg" viewBox="0 0 462.37 325.62"><defs><style>.cls-1{fill:#ea39af;}</style></defs><g id="Layer_2" data-name="Layer 2"><g id="Layer_2-2" data-name="Layer 2"><path class="cls-1" d="M410.22,0a52.15,52.15,0,0,0-52.15,52.15c0,1.31.05,2.63.15,3.92A136.9,136.9,0,0,0,231.18,90a136.88,136.88,0,0,0-127-33.94c.1-1.29.15-2.61.15-3.92A52.15,52.15,0,0,0,0,52.15V188.89a136.73,136.73,0,0,0,231.18,98.87,136.74,136.74,0,0,0,231.19-98.87V52.15A52.16,52.16,0,0,0,410.22,0ZM136.74,241a52.15,52.15,0,1,1,52.15-52.15A52.16,52.16,0,0,1,136.74,241Zm188.89,0a52.15,52.15,0,1,1,52.15-52.15A52.16,52.16,0,0,1,325.63,241Z"/></g></g></svg>