<svg xmlns="http://www.w3.org/2000/svg" viewBox="0 0 328.84 54.62"><defs><style>.cls-1{fill:#999;}</style></defs><g id="Layer_2" data-name="Layer 2"><g id="Layer_2-2" data-name="Layer 2"><path class="cls-1" d="M68.81,0a8.75,8.75,0,0,0-8.75,8.75q0,.33,0,.66A22.95,22.95,0,0,0,38.78,15.1,22.95,22.95,0,0,0,17.47,9.41q0-.33,0-.66A8.75,8.75,0,0,0,0,8.75V31.69A22.94,22.94,0,0,0,38.78,48.27,22.94,22.94,0,0,0,77.56,31.69V8.75A8.75,8.75,0,0,0,68.81,0ZM22.94,40.43a8.75,8.75,0,1,1,8.75-8.74A8.74,8.74,0,0,1,22.94,40.43Zm31.68,0a8.75,8.75,0,1,1,8.75-8.74A8.74,8.74,0,0,1,54.62,40.43Z"/><path class="cls-1" d="M107.6,17c-3.41,0-6,1.35-7.42,3.46h-.11v-14H92.45V34.77c0,2.75-.1,5.71-.2,7.32h6.47l.3-3.41h.1a8.14,8.14,0,0,0,7.37,4c5.62,0,11.23-4.41,11.23-13.24C117.77,21.88,113.46,17,107.6,17Zm-2.91,19.6A4.62,4.62,0,0,1,100.22,33a5.58,5.58,0,0,1-.15-1.35V28.05a6.42,6.42,0,0,1,.15-1.41,4.74,4.74,0,0,1,4.47-3.76c3.56,0,5.26,3,5.26,6.82C110,34.11,108,36.62,104.69,36.62Z"/><path class="cls-1" d="M126.24,6.89a3.73,3.73,0,0,0-4,3.86,3.73,3.73,0,0,0,4,3.81,3.84,3.84,0,1,0,0-7.67Z"/><rect class="cls-1" x="122.43" y="17.57" width="7.62" height="24.52"/><path class="cls-1" d="M146.65,27.09c-3-1.05-4-1.65-4-2.8s1.05-2,2.91-2a11.91,11.91,0,0,1,5.31,1.41l1.36-5.27a16.54,16.54,0,0,0-6.92-1.4c-6.07,0-10,3.46-10,8-.05,2.91,1.9,5.67,7,7.37,2.86,1,3.61,1.55,3.61,2.81s-1,2.05-3.26,2.05a14.91,14.91,0,0,1-6.57-1.85l-1.35,5.46a17.23,17.23,0,0,0,7.92,1.71c7,0,10.63-3.36,10.63-7.92C153.27,31.06,151.31,28.7,146.65,27.09Z"/><path class="cls-1" d="M178.39,27.6c0-5.77-2.61-10.58-10.78-10.58a20.26,20.26,0,0,0-9.53,2.15l1.4,4.92a13.73,13.73,0,0,1,6.77-1.86c3.76,0,4.46,1.86,4.46,3.16v.35c-8.67,0-14.39,3-14.39,9.38a7.52,7.52,0,0,0,7.93,7.52,8.84,8.84,0,0,0,7-3h.15l.45,2.46h6.87a38.16,38.16,0,0,1-.35-6ZM171,33.16a5.6,5.6,0,0,1-.15,1.31,4.16,4.16,0,0,1-4,2.8,2.74,2.74,0,0,1-3-2.9c0-3,3.11-3.92,7.12-3.87Z"/><path class="cls-1" d="M208.17,6.49h-7.63V19.77h-.1C199.34,18.07,197,17,194,17c-5.87,0-11,4.76-11,13,0,7.62,4.66,12.59,10.47,12.59a8.59,8.59,0,0,0,7.68-4.16h.1l.35,3.61h6.77c-.1-1.66-.2-4.57-.2-7.32Zm-7.63,24.67a6.47,6.47,0,0,1-.2,1.75,4.45,4.45,0,0,1-4.41,3.66c-3.16,0-5.21-2.61-5.21-6.77,0-3.86,1.8-7,5.26-7a4.58,4.58,0,0,1,4.46,3.76,12.62,12.62,0,0,1,.1,1.36Z"/><path class="cls-1" d="M225.26,17c-8.52,0-12.38,6.87-12.38,13.08,0,7.67,4.76,12.49,13.08,12.49a24.09,24.09,0,0,0,8.88-1.51l-1-5.16a21.6,21.6,0,0,1-6.76,1c-3.56,0-6.67-1.5-6.92-4.66h15.79a18.2,18.2,0,0,0,.25-3C236.19,23.18,233.18,17,225.26,17ZM220.1,27c.2-2.05,1.5-5,4.71-5,3.51,0,4.31,3.11,4.31,5Z"/><path class="cls-1" d="M251.23,27.09c-3-1.05-4-1.65-4-2.8s1-2,2.91-2a11.91,11.91,0,0,1,5.31,1.41l1.36-5.27a16.54,16.54,0,0,0-6.92-1.4c-6.07,0-10,3.46-10,8,0,2.91,1.9,5.67,7,7.37,2.86,1,3.61,1.55,3.61,2.81s-.95,2.05-3.26,2.05a14.91,14.91,0,0,1-6.57-1.85l-1.35,5.46a17.23,17.23,0,0,0,7.92,1.71c7,0,10.63-3.36,10.63-7.92C257.85,31.06,255.89,28.7,251.23,27.09Z"/><rect class="cls-1" x="262.51" y="17.57" width="7.62" height="24.52"/><path class="cls-1" d="M266.32,6.89a3.72,3.72,0,0,0-4,3.86,3.72,3.72,0,0,0,4,3.81,3.84,3.84,0,1,0,.05-7.67Z"/><path class="cls-1" d="M292.79,20.48h-.1A7.38,7.38,0,0,0,286,17c-6,0-11.13,5-11.13,12.88,0,7.07,4.31,12,10.38,12a7.85,7.85,0,0,0,6.62-3.21h.1v1.6c0,4.51-2.76,6.47-6.37,6.47a15,15,0,0,1-7.12-1.86L277,50.66a19.11,19.11,0,0,0,8.82,1.91c3.61,0,7.27-.71,10-3,2.76-2.46,3.71-6.32,3.71-11V24.84c0-3.66.1-5.72.2-7.27H293Zm-1,10.68a6.46,6.46,0,0,1-.25,2,4.14,4.14,0,0,1-4,3.11c-3.21,0-5-2.86-5-6.52,0-4.46,2.26-7,5-7a4.19,4.19,0,0,1,4.11,3.36,6,6,0,0,1,.15,1.41Z"/><path class="cls-1" d="M320.06,17a9,9,0,0,0-7.57,3.91h-.15L312,17.57h-6.62c.1,2.15.2,4.76.2,7.82v16.7h7.62V28A5.26,5.26,0,0,1,313.5,26a4.07,4.07,0,0,1,3.86-2.86c2.75,0,3.86,2.16,3.86,5.32V42.09h7.62V27.55C328.84,20.33,325.08,17,320.06,17Z"/></g></g></svg>